<svg width="220" height="91" viewBox="0 0 220 91" fill="none" xmlns="http://www.w3.org/2000/svg">
<g clip-path="url(#clip0_82_113)">
<path d="M212.64 52.6225C212.346 54.0888 212.807 55.5971 213.184 57.0216C216.033 67.8729 213.771 81.238 204.178 87.0617C198.732 90.3715 192.071 90.6229 185.704 90.7905C176.194 91.0419 166.517 91.2514 157.092 90.2458C154.453 90.7486 151.813 91 149.132 90.8324C145.404 90.6229 141.801 89.5336 138.157 88.7795C121.191 85.2601 103.68 88.2348 86.4209 89.4498C69.1616 90.6648 50.6037 89.7012 36.4863 79.6878C32.339 76.7551 28.5688 72.9424 26.7256 68.1662C25.9296 66.2389 25.5107 64.186 25.3432 62.133C25.2594 62.0912 25.1337 62.0074 25.0499 61.9236C24.254 61.2951 23.7513 60.3734 23.5837 59.3679C23.458 58.488 22.7459 57.8177 21.8662 57.7758H21.3216C20.6094 57.7339 19.8973 58.1109 19.5621 58.7813C19.1013 59.703 18.1797 60.4572 17.1324 60.4572C16.3784 60.4991 15.6244 60.0801 15.1635 59.4516C14.5771 58.6975 13.4879 58.488 12.692 59.0327C12.3568 59.2422 12.0217 59.4516 11.6447 59.5773C10.9325 59.8287 10.0528 59.7868 9.42442 59.4098C8.87984 59.1165 8.25146 59.0327 7.70687 59.326C7.24607 59.5773 6.70148 59.6192 6.19878 59.4935C5.06772 59.2003 4.35556 57.9853 3.22449 57.7758C2.88936 57.692 2.51234 57.7339 2.17721 57.5663C1.7164 57.3149 1.54884 56.7283 1.46505 56.2256C0.962356 53.5023 0.627224 50.779 0.459659 48.0138C0.333984 46.5893 0.333984 45.1648 0.333984 43.7822C0.333984 42.8186 0.375876 41.0589 0.669116 40.0115C0.836681 38.9641 1.17181 37.8329 1.46505 36.9949C1.92586 35.6542 2.38666 34.3554 2.93125 33.0566C3.93665 30.5009 5.1515 28.029 6.49202 25.599C6.74337 25.1381 7.0785 24.6353 7.5812 24.5515C7.91633 24.5097 8.29335 24.6772 8.62849 24.7191C9.75955 24.9286 10.8068 24.0069 11.9798 24.0488C12.4825 24.0907 12.9433 24.3002 13.3203 24.6772C13.7392 25.1381 14.3676 25.2638 14.9541 25.1381C15.6662 24.9705 16.5041 25.2219 17.0906 25.6828C17.3838 25.9341 17.6351 26.2274 17.8865 26.5207C18.473 27.2748 19.5621 27.4424 20.3581 26.8978C20.9865 26.4369 21.8243 26.3112 22.5364 26.5626C23.4999 26.8978 24.1702 27.8614 24.2959 28.9088C24.4216 29.6211 24.9661 30.2076 25.6783 30.4171C25.8459 30.459 26.0134 30.5009 26.181 30.5428C27.0188 30.7942 27.8985 30.3752 28.3175 29.6211C28.7783 28.6993 29.5742 27.9871 30.5377 27.6519C30.6634 27.61 30.7472 27.5681 30.8309 27.5681C31.3755 27.4424 31.8363 27.0654 32.0877 26.5626C32.2971 26.1855 32.5066 25.8085 32.7161 25.4314C34.0566 23.2108 36.1512 21.535 38.1619 19.901C46.9591 12.8204 56.5942 5.44658 67.863 4.94381C75.3615 4.60864 82.6087 7.37383 89.4789 10.3904C100.79 15.3342 111.807 20.9903 122.783 26.6464C123.662 27.1073 124.626 27.5681 125.589 27.9033C125.631 27.9452 125.673 27.9452 125.673 27.9452C130.365 29.2859 134.47 32.0511 138.408 34.7744C139.497 35.5285 140.628 36.2827 141.718 37.0368C141.927 37.1625 142.011 36.9111 141.843 36.7854C140.042 35.2772 138.115 33.8946 136.104 32.6376C135.141 32.0511 134.219 31.4226 133.339 30.7942C132.46 30.1657 131.58 29.5373 130.658 28.9507C130.197 28.6574 129.737 28.4061 129.234 28.1547C130.616 27.8195 131.915 27.1073 133.172 26.3531C140.67 21.912 148.211 17.471 155.751 13.0299C159.815 10.6418 164.046 8.16987 168.779 7.66711C170.665 7.45763 172.55 7.62521 174.435 7.8347C188.678 2.05293 216.913 -9.00785 214.818 13.7003C214.483 17.1777 213.268 20.7808 214.483 24.0488C215.153 25.8923 216.536 27.3586 217.499 29.0345C221.06 35.1096 219.049 43.1119 214.818 48.726L214.86 48.7679C213.938 49.983 212.933 51.1561 212.64 52.6225Z" fill="#FF6F61"/>
<path d="M49.0034 40.0408C49.0034 44.109 46.0375 47.1046 39.9256 48.416C40.0177 50.2511 40.047 52.0233 40.047 53.6447H35.1876C35.1876 46.0321 34.8818 37.7784 33.9058 31.7536C45.9495 31.7536 49.0076 34.0789 49.0076 40.0366L49.0034 40.0408ZM39.7119 43.5267C42.6778 42.8228 44.1733 41.4151 44.1733 39.3076C44.1733 37.7197 42.0034 36.6179 39.1589 36.6179C39.4941 39.094 39.6156 41.5407 39.7077 43.5267H39.7119Z" fill="white"/>
<path d="M56.678 32.2773C56.1879 34.2632 54.7217 42.7306 54.7217 46.1871C54.7217 49.6436 55.9743 50.7413 59.1831 50.7413V55.572C53.222 55.572 49.8623 52.1783 49.8623 46.1871C49.8623 42.5798 51.3285 33.3792 51.8186 31.7871L56.678 32.2773Z" fill="white"/>
<path d="M72.0226 53.2802C72.3912 51.9353 72.8478 49.9494 73.4301 47.134C71.0758 47.532 67.9884 48.7847 65.6341 50.4983C65.7263 51.4451 66.0028 52.2119 66.2751 53.0372L61.5371 54.1391C60.4689 51.0806 59.7651 47.3853 59.7651 43.6858C59.7651 37.0536 63.4641 32.0092 69.0273 32.0092C74.5905 32.0092 78.566 37.2379 78.566 43.6858C78.566 45.3366 78.5367 47.599 76.7647 54.4156L72.0268 53.2844L72.0226 53.2802ZM69.0273 36.8315C66.2457 36.8315 64.5952 39.8565 64.5952 43.6775C64.5952 44.3478 64.6245 44.9595 64.6874 45.5419C67.1632 43.8283 71.168 42.5169 73.6144 42.1776C73.2165 39.1191 71.3523 36.8273 69.0315 36.8273L69.0273 36.8315Z" fill="white"/>
<path d="M86.27 36.953C85.9935 36.6179 85.6291 36.4335 85.2018 36.4335C84.3765 36.4335 83.9492 36.953 83.9492 38.0214C83.9492 40.7112 86.3622 41.7209 88.6578 43.7697C90.7063 45.6047 91.2886 47.2555 91.2886 48.8769C91.2886 52.6979 88.3227 55.8778 84.5315 55.8778C83.0318 55.8778 81.5991 55.3583 80.2837 54.3486L83.3083 50.5569C83.7063 50.8921 84.1042 51.0471 84.5315 51.0471C85.6333 51.0471 86.425 50.3726 86.425 49.1199C86.425 48.3574 85.7547 47.62 83.6434 45.9106C81.1676 43.9247 79.1191 41.7837 79.1191 38.0214C79.1191 34.2591 81.3813 31.7536 85.2939 31.7536C86.7601 31.7536 88.4107 32.1517 89.2359 33.0985L86.27 36.9488V36.953Z" fill="white"/>
<path d="M102.562 37.1081H99.6293C99.7214 40.1665 99.7843 43.7738 99.7843 48.2065V53.7704H94.9542C94.9542 45.6089 94.8914 40.045 94.7699 37.0494H92.3569V32.2187C94.1289 32.2187 100.731 32.2815 102.566 32.2815V37.1122L102.562 37.1081Z" fill="white"/>
<path d="M109.105 32.9184C109.105 36.6472 109.013 49.8866 109.013 53.6447H104.183C104.183 49.8531 104.275 36.6765 104.275 32.9184H109.105Z" fill="white"/>
<path d="M120.047 36.7393C119.833 36.6765 119.59 36.6472 119.343 36.6472C117.018 36.6472 115.493 39.3663 115.493 43.5266C115.493 47.687 117.45 50.0374 121.392 50.0374L121.911 54.8681C121.668 54.8975 121.392 54.8975 121.115 54.8975C114.145 54.8975 110.659 50.2511 110.659 43.5266C110.659 36.8022 114.023 31.7871 119.31 31.7871C119.766 31.7871 120.135 31.85 120.592 31.8793L120.043 36.7393H120.047Z" fill="white"/>
<path d="M113.738 62.8537C113.525 62.7908 113.282 62.7615 113.035 62.7615C110.71 62.7615 109.185 65.4806 109.185 69.641C109.185 73.8013 111.141 76.1517 115.083 76.1517L115.603 80.9824C115.36 81.0118 115.083 81.0118 114.807 81.0118C107.836 81.0118 104.351 76.3654 104.351 69.641C104.351 62.9165 107.714 57.9015 113.001 57.9015C113.458 57.9015 113.826 57.9643 114.283 57.9936L113.734 62.8537H113.738Z" fill="white"/>
<path d="M120.772 58.3288C121.015 59.46 121.413 62.242 121.568 65.0239C122.422 63.7084 123.83 63.1888 125.267 63.1888C128.844 63.1888 130.767 66.859 130.767 70.8937C130.767 74.9283 129.787 80.3079 129.699 81.0746L124.898 80.6766C125.481 75.297 125.569 73.9521 125.569 72.9131C125.569 69.7038 124.957 68.0824 123.734 68.0824C122.418 68.0824 121.593 70.2233 121.593 80.2786H116.734C116.734 69.5488 116.734 62.6107 116 59.0327L120.768 58.3288H120.772Z" fill="white"/>
<path d="M144.127 79.3904C144.495 78.0455 144.952 76.0596 145.534 73.2441C143.18 73.6421 140.092 74.8948 137.738 76.6084C137.83 77.5553 138.107 78.322 138.379 79.1474L133.641 80.2492C132.573 77.1908 131.869 73.4955 131.869 69.796C131.869 63.1637 135.568 58.1193 141.131 58.1193C146.695 58.1193 150.67 63.3481 150.67 69.796C150.67 71.4467 150.641 73.7091 148.864 80.5258L144.127 79.3946V79.3904ZM141.127 62.9417C138.346 62.9417 136.695 65.9666 136.695 69.7876C136.695 70.458 136.724 71.0696 136.787 71.652C139.263 69.9384 143.268 68.6271 145.714 68.2877C145.316 65.2292 143.452 62.9375 141.127 62.9375V62.9417Z" fill="white"/>
<path d="M156.933 58.023C156.69 58.7268 156.598 59.6444 156.598 60.2561C157.486 58.7562 158.952 58.0565 160.665 58.0565C164.729 58.0565 166.991 60.8091 166.991 66.4024C166.991 70.8644 165.889 75.7872 163.69 81.2003L159.195 79.3652C160.753 75.6951 162.253 69 162.253 66.1258C162.253 63.9849 161.671 62.9165 160.51 62.9165C157.85 62.9165 156.384 66.1258 156.384 71.2624C156.384 73.3405 156.782 76.1853 157.486 78.875L152.777 80.5258C152.015 76.8891 151.646 72.6073 151.646 67.7179C151.646 64.1399 151.889 61.2658 152.35 58.8232L156.937 58.0272L156.933 58.023Z" fill="white"/>
<path d="M179.219 64.2572C178.792 63.0632 177.996 62.485 176.865 62.485C174.297 62.485 172.738 65.7865 172.738 69.9426C172.738 73.5206 175.093 76.1182 178.302 76.1182C179.433 76.1182 180.472 74.8655 180.472 73.4913C180.472 72.4816 180.074 71.9621 178.884 71.9621C178.272 71.9621 177.937 72.1757 177.112 72.6366L176.287 68.4469C177.141 67.8352 178.457 67.5294 179.437 67.5294C182.767 67.5294 185.063 70.0976 185.063 73.6128C185.063 77.6181 182.311 80.9489 178.306 80.9489C172.408 80.9489 167.913 76.1811 167.913 69.9426C167.913 62.5143 171.063 57.5328 176.563 57.5328C180.107 57.5328 183.626 59.8874 184.02 62.8537L179.219 64.2614V64.2572Z" fill="white"/>
<path d="M194.932 62.883C194.748 62.7908 194.442 62.7615 194.015 62.7615C192.272 62.7615 191.141 64.2279 190.651 67.1942C192.025 67.1649 193.341 67.1313 194.593 66.9177L195.113 71.7777C193.739 71.9327 192.302 71.9914 190.71 72.0207C191.351 74.7733 193.215 76.1476 196.336 76.1476L196.855 80.9783C189.734 80.9783 185.607 76.6671 185.607 69.6368C185.607 62.6065 188.971 57.8973 194.258 57.8973C194.715 57.8973 195.113 57.9601 195.573 57.9895L194.932 62.8788V62.883Z" fill="white"/>
</g>
<defs>
<clipPath id="clip0_82_113">
<rect width="219" height="91" fill="white" transform="translate(0.333984)"/>
</clipPath>
</defs>
</svg>
